<svg width="242" height="50" viewBox="0 0 242 50" fill="none" xmlns="http://www.w3.org/2000/svg">
<g style="mix-blend-mode:hard-light" filter="url(#filter0_d_4_53)">
<path d="M4.64025 34V0.789997H17.4733V4.111H9.27325V15.181H15.6283V18.461H9.27325V34H4.64025ZM29.1839 34V10.302H33.5709V34H29.1839ZM29.1839 6.776V2.184H33.5709V6.776H29.1839ZM47.286 34V0.789997H51.673V34H47.286ZM64.8552 34V10.302H68.9142V12.557C69.7068 11.655 70.5815 10.9853 71.5382 10.548C72.4948 10.1107 73.4788 9.892 74.4902 9.892C75.3648 9.892 76.1438 10.1107 76.8272 10.548C77.5378 10.9853 78.0435 11.7643 78.3442 12.885C79.1915 11.8463 80.1072 11.0947 81.0912 10.63C82.1025 10.138 83.1548 9.892 84.2482 9.892C85.0135 9.892 85.7105 10.0833 86.3392 10.466C86.9678 10.8213 87.4735 11.409 87.8562 12.229C88.2388 13.0217 88.4302 14.074 88.4302 15.386V34H84.4122V15.673C84.4122 14.525 84.2208 13.7597 83.8382 13.377C83.4828 12.967 82.9908 12.762 82.3622 12.762C81.7608 12.762 81.1322 12.9397 80.4762 13.295C79.8202 13.623 79.2188 14.0877 78.6722 14.689C78.6722 14.7983 78.6722 14.9077 78.6722 15.017C78.6722 15.1263 78.6722 15.2493 78.6722 15.386V34H74.6542V15.673C74.6542 14.525 74.4628 13.7597 74.0802 13.377C73.7248 12.967 73.2328 12.762 72.6042 12.762C72.0028 12.762 71.3742 12.9397 70.7182 13.295C70.0895 13.623 69.4882 14.0877 68.9142 14.689V34H64.8552ZM106.826 34.328C104.886 34.328 103.328 33.7267 102.152 32.524C100.977 31.294 100.307 29.6813 100.143 27.686L103.792 26.579C104.011 28.0823 104.38 29.2167 104.899 29.982C105.419 30.72 106.184 31.089 107.195 31.089C107.988 31.089 108.589 30.8703 108.999 30.433C109.409 29.9683 109.614 29.3533 109.614 28.588C109.614 27.9047 109.464 27.2897 109.163 26.743C108.863 26.1963 108.371 25.636 107.687 25.062L103.628 21.577C102.808 20.8663 102.111 20.0737 101.537 19.199C100.991 18.3243 100.717 17.19 100.717 15.796C100.717 14.5387 100.963 13.4863 101.455 12.639C101.975 11.7643 102.685 11.1083 103.587 10.671C104.517 10.2063 105.596 9.974 106.826 9.974C108.712 9.974 110.147 10.589 111.131 11.819C112.143 13.0217 112.717 14.484 112.853 16.206L109.901 17.313C109.792 16.493 109.628 15.7823 109.409 15.181C109.191 14.5523 108.89 14.074 108.507 13.746C108.125 13.3907 107.619 13.213 106.99 13.213C106.28 13.213 105.706 13.459 105.268 13.951C104.858 14.4157 104.653 14.976 104.653 15.632C104.653 16.042 104.735 16.452 104.899 16.862C105.091 17.2447 105.405 17.6273 105.842 18.01L110.024 21.864C110.598 22.3833 111.131 22.9437 111.623 23.545C112.143 24.1463 112.566 24.8297 112.894 25.595C113.222 26.3603 113.386 27.2487 113.386 28.26C113.386 29.5993 113.113 30.72 112.566 31.622C112.02 32.524 111.254 33.2073 110.27 33.672C109.286 34.1093 108.138 34.328 106.826 34.328ZM143.625 34V0.789997H151.866C153.862 0.789997 155.447 1.159 156.622 1.897C157.825 2.60767 158.7 3.64633 159.246 5.013C159.793 6.37967 160.066 8.03333 160.066 9.974C160.066 11.7233 159.752 13.2403 159.123 14.525C158.522 15.8097 157.62 16.8073 156.417 17.518C155.215 18.2013 153.711 18.543 151.907 18.543H148.258V34H143.625ZM148.258 15.222H150.39C151.73 15.222 152.782 15.0717 153.547 14.771C154.313 14.4703 154.859 13.951 155.187 13.213C155.515 12.4477 155.679 11.3817 155.679 10.015C155.679 8.42967 155.556 7.21333 155.31 6.366C155.092 5.51867 154.613 4.931 153.875 4.603C153.137 4.275 151.989 4.111 150.431 4.111H148.258V15.222ZM175.83 34.328C174.9 34.328 174.08 34.0683 173.37 33.549C172.659 33.0023 172.099 32.319 171.689 31.499C171.279 30.6517 171.074 29.7633 171.074 28.834C171.074 27.358 171.32 26.1143 171.812 25.103C172.304 24.0917 172.973 23.2443 173.821 22.561C174.695 21.8503 175.693 21.2353 176.814 20.716C177.962 20.1967 179.164 19.691 180.422 19.199V17.518C180.422 16.5613 180.367 15.7687 180.258 15.14C180.148 14.5113 179.916 14.0467 179.561 13.746C179.233 13.418 178.727 13.254 178.044 13.254C177.442 13.254 176.95 13.3907 176.568 13.664C176.212 13.9373 175.953 14.3337 175.789 14.853C175.625 15.345 175.543 15.9327 175.543 16.616V17.805L171.197 17.641C171.251 15.017 171.853 13.09 173.001 11.86C174.149 10.6027 175.925 9.974 178.331 9.974C180.681 9.974 182.349 10.6163 183.333 11.901C184.317 13.1857 184.809 15.0443 184.809 17.477V28.301C184.809 29.039 184.822 29.7497 184.85 30.433C184.904 31.1163 184.959 31.7587 185.014 32.36C185.096 32.934 185.164 33.4807 185.219 34H181.201C181.119 33.5627 181.009 33.016 180.873 32.36C180.763 31.6767 180.681 31.0617 180.627 30.515C180.353 31.4443 179.82 32.319 179.028 33.139C178.262 33.9317 177.196 34.328 175.83 34.328ZM177.552 30.556C177.989 30.556 178.399 30.433 178.782 30.187C179.164 29.941 179.506 29.6677 179.807 29.367C180.107 29.039 180.312 28.7793 180.422 28.588V21.864C179.738 22.2467 179.096 22.6293 178.495 23.012C177.893 23.3947 177.36 23.8047 176.896 24.242C176.458 24.652 176.103 25.1303 175.83 25.677C175.584 26.1963 175.461 26.7977 175.461 27.481C175.461 28.4377 175.638 29.1893 175.994 29.736C176.349 30.2827 176.868 30.556 177.552 30.556ZM203.783 41.339C202.361 41.339 201.077 41.1887 199.929 40.888C198.781 40.5873 197.879 40.109 197.223 39.453C196.567 38.797 196.239 37.936 196.239 36.87C196.239 36.1047 196.403 35.435 196.731 34.861C197.059 34.287 197.482 33.795 198.002 33.385C198.521 32.9477 199.068 32.5923 199.642 32.319C198.876 32.1003 198.302 31.7587 197.92 31.294C197.537 30.802 197.346 30.2963 197.346 29.777C197.346 28.9023 197.578 28.1507 198.043 27.522C198.507 26.8933 199.15 26.21 199.97 25.472C199.068 24.7887 198.384 23.914 197.92 22.848C197.455 21.782 197.223 20.306 197.223 18.42C197.223 16.5613 197.469 15.017 197.961 13.787C198.48 12.5297 199.232 11.5867 200.216 10.958C201.227 10.302 202.457 9.974 203.906 9.974C205.19 9.974 206.215 10.1927 206.981 10.63C207.773 11.0673 208.375 11.7233 208.785 12.598C208.921 12.3793 209.29 12.0103 209.892 11.491C210.493 10.9443 211.19 10.4933 211.983 10.138L212.639 9.851L213.746 12.68C213.39 12.7347 212.912 12.8713 212.311 13.09C211.737 13.2813 211.19 13.4863 210.671 13.705C210.179 13.8963 209.864 14.0603 209.728 14.197C209.919 14.6617 210.083 15.3313 210.22 16.206C210.384 17.0807 210.466 17.8597 210.466 18.543C210.466 20.1557 210.261 21.577 209.851 22.807C209.441 24.037 208.757 25.0073 207.801 25.718C206.871 26.4013 205.573 26.743 203.906 26.743C203.55 26.743 203.168 26.7157 202.758 26.661C202.348 26.6063 201.979 26.538 201.651 26.456C201.487 26.702 201.309 26.989 201.118 27.317C200.954 27.645 200.872 27.9593 200.872 28.26C200.872 28.5607 201.022 28.8067 201.323 28.998C201.651 29.162 202.156 29.2713 202.84 29.326L206.53 29.654C208.388 29.818 209.769 30.3783 210.671 31.335C211.573 32.2917 212.024 33.6583 212.024 35.435C212.024 36.7197 211.723 37.7993 211.122 38.674C210.52 39.576 209.605 40.2457 208.375 40.683C207.172 41.1203 205.641 41.339 203.783 41.339ZM204.111 37.895C205.669 37.895 206.817 37.7037 207.555 37.321C208.293 36.9657 208.662 36.378 208.662 35.558C208.662 35.066 208.566 34.656 208.375 34.328C208.211 34 207.896 33.7403 207.432 33.549C206.967 33.3577 206.297 33.221 205.423 33.139L201.692 32.811C201.391 33.1117 201.104 33.4123 200.831 33.713C200.557 34.0137 200.339 34.328 200.175 34.656C200.011 35.0113 199.929 35.3803 199.929 35.763C199.929 36.4737 200.229 37.0067 200.831 37.362C201.432 37.7173 202.525 37.895 204.111 37.895ZM203.906 23.668C204.534 23.668 205.026 23.5587 205.382 23.34C205.764 23.094 206.051 22.7523 206.243 22.315C206.434 21.8503 206.557 21.29 206.612 20.634C206.694 19.978 206.735 19.24 206.735 18.42C206.735 17.6 206.694 16.862 206.612 16.206C206.557 15.5227 206.434 14.9487 206.243 14.484C206.079 13.992 205.805 13.623 205.423 13.377C205.067 13.131 204.575 13.008 203.947 13.008C203.345 13.008 202.84 13.131 202.43 13.377C202.047 13.623 201.76 13.9783 201.569 14.443C201.377 14.8803 201.241 15.4407 201.159 16.124C201.077 16.78 201.036 17.5453 201.036 18.42C201.036 19.158 201.063 19.855 201.118 20.511C201.2 21.1397 201.336 21.6863 201.528 22.151C201.746 22.6157 202.047 22.9847 202.43 23.258C202.812 23.5313 203.304 23.668 203.906 23.668ZM230.46 34.328C228.601 34.328 227.166 33.9727 226.155 33.262C225.144 32.524 224.433 31.458 224.023 30.064C223.64 28.6427 223.449 26.907 223.449 24.857V19.445C223.449 17.3403 223.654 15.591 224.064 14.197C224.474 12.803 225.185 11.7507 226.196 11.04C227.235 10.3293 228.656 9.974 230.46 9.974C232.455 9.974 233.918 10.384 234.847 11.204C235.804 12.024 236.432 13.213 236.733 14.771C237.034 16.3017 237.184 18.1467 237.184 20.306V22.233H227.836V26.989C227.836 27.9457 227.918 28.7247 228.082 29.326C228.273 29.9273 228.56 30.3783 228.943 30.679C229.353 30.9523 229.872 31.089 230.501 31.089C231.157 31.089 231.649 30.9387 231.977 30.638C232.332 30.31 232.565 29.859 232.674 29.285C232.811 28.6837 232.879 27.9867 232.879 27.194V25.759H237.143V26.661C237.143 29.039 236.637 30.9113 235.626 32.278C234.615 33.6447 232.893 34.328 230.46 34.328ZM227.836 19.855H232.879V17.723C232.879 16.739 232.824 15.919 232.715 15.263C232.606 14.5797 232.373 14.074 232.018 13.746C231.69 13.3907 231.157 13.213 230.419 13.213C229.708 13.213 229.162 13.377 228.779 13.705C228.424 14.033 228.178 14.5933 228.041 15.386C227.904 16.1513 227.836 17.2173 227.836 18.584V19.855Z" fill="white"/>
</g>
<defs>
<filter id="filter0_d_4_53" x="0.640259" y="0.790039" width="240.544" height="48.549" filterUnits="userSpaceOnUse" color-interpolation-filters="sRGB">
<feFlood flood-opacity="0" result="BackgroundImageFix"/>
<feColorMatrix in="SourceAlpha" type="matrix" values="0 0 0 0 0 0 0 0 0 0 0 0 0 0 0 0 0 0 127 0" result="hardAlpha"/>
<feOffset dy="4"/>
<feGaussianBlur stdDeviation="2"/>
<feComposite in2="hardAlpha" operator="out"/>
<feColorMatrix type="matrix" values="0 0 0 0 0 0 0 0 0 0 0 0 0 0 0 0 0 0 0.25 0"/>
<feBlend mode="normal" in2="BackgroundImageFix" result="effect1_dropShadow_4_53"/>
<feBlend mode="normal" in="SourceGraphic" in2="effect1_dropShadow_4_53" result="shape"/>
</filter>
</defs>
</svg>
